<svg width="24" height="24" viewBox="0 0 28 28" fill="currentColor" xmlns="http://www.w3.org/2000/svg">
  <path
    d="M7.33637 14L3.28747 16.1588C3.17687 16.2179 3.08439 16.3059 3.01992 16.4134C2.95544 16.521 2.92139 16.644 2.92139 16.7694C2.92139 16.8948 2.95544 17.0179 3.01992 17.1254C3.08439 17.233 3.17687 17.321 3.28747 17.3801L13.6728 22.9189C13.773 22.9723 13.8847 23.0002 13.9982 23.0002C14.1117 23.0002 14.2235 22.9723 14.3236 22.9189L24.709 17.3801C24.8196 17.321 24.912 17.233 24.9765 17.1254C25.041 17.0179 25.0751 16.8948 25.0751 16.7694C25.0751 16.644 25.041 16.521 24.9765 16.4134C24.912 16.3059 24.8196 16.2179 24.709 16.1588L20.6642 14L19.1923 14.7851L22.9144 16.7694L13.9996 21.5231L5.08483 16.7694L8.80693 14.7851L7.33498 14H7.33637Z"
  />
  <path
    d="M13.6735 5.08099C13.7737 5.02765 13.8855 4.99976 13.999 4.99976C14.1124 4.99976 14.2242 5.02765 14.3244 5.08099L24.7097 10.6198C24.8203 10.6789 24.9128 10.767 24.9773 10.8745C25.0417 10.9821 25.0758 11.1051 25.0758 11.2305C25.0758 11.3559 25.0417 11.4789 24.9773 11.5865C24.9128 11.694 24.8203 11.7821 24.7097 11.8412L14.3244 17.38C14.2242 17.4333 14.1124 17.4612 13.999 17.4612C13.8855 17.4612 13.7737 17.4333 13.6735 17.38L3.2882 11.8412C3.1776 11.7821 3.08513 11.694 3.02065 11.5865C2.95618 11.4789 2.92212 11.3559 2.92212 11.2305C2.92212 11.1051 2.95618 10.9821 3.02065 10.8745C3.08513 10.767 3.1776 10.6789 3.2882 10.6198L13.6735 5.08099ZM5.08556 11.2305L13.999 15.9842L22.9137 11.2305L13.999 6.47678L5.08417 11.2305H5.08556Z"
  />
</svg>
