<svg class="locked" width="19" height="18" viewBox="0 0 20 26" fill="none" xmlns="http://www.w3.org/2000/svg">
  <path
    d="M10.46 1.25C7.41 1.25 6.14 4.39 6.14 6.77H14.78C14.78 4.39 13.51 1.25 10.46 1.25Z"
    stroke="#686F77"
    stroke-miterlimit="10"
  />
  <path
    d="
      M18.37 6.77H2.35C1.74249 6.77 1.25 7.26248 1.25 7.87V23.89C1.25 24.4975 1.74249 24.99 2.35
      24.99H18.37C18.9775 24.99 19.47 24.4975 19.47 23.89V7.87C19.47 7.26248 18.9775 6.77 18.37 6.77Z
    "
    stroke="#686F77"
    stroke-miterlimit="10"
  />
  <path
    d="
      M10.62 18.07C11.7301 18.07 12.63 17.1701 12.63 16.06C12.63 14.9499 11.7301 14.05 10.62 14.05C9.50989
      14.05 8.60999 14.9499 8.60999 16.06C8.60999 17.1701 9.50989 18.07 10.62 18.07Z
    "
    fill="#686F77"
  />
</svg>

